<svg width="39" height="39" viewBox="0 0 39 39" fill="none" xmlns="http://www.w3.org/2000/svg">
<mask id="mask0_90_46" style="mask-type:alpha" maskUnits="userSpaceOnUse" x="0" y="0" width="39" height="39">
<rect x="39" y="39" width="39" height="39" transform="rotate(180 39 39)" fill="#D9D9D9"/>
</mask>
<g mask="url(#mask0_90_46)">
<path d="M19.5 13L13 19.5L19.5 26L21.775 23.725L19.175 21.125L26 21.125L26 17.875L19.175 17.875L21.775 15.275L19.5 13ZM19.5 3.25001C21.7479 3.25001 23.8604 3.67657 25.8375 4.52969C27.8146 5.38282 29.5344 6.54063 30.9969 8.00313C32.4594 9.46563 33.6172 11.1854 34.4703 13.1625C35.3234 15.1396 35.75 17.2521 35.75 19.5C35.75 21.7479 35.3234 23.8604 34.4703 25.8375C33.6172 27.8146 32.4594 29.5344 30.9969 30.9969C29.5344 32.4594 27.8146 33.6172 25.8375 34.4703C23.8604 35.3234 21.7479 35.75 19.5 35.75C17.2521 35.75 15.1396 35.3234 13.1625 34.4703C11.1854 33.6172 9.46563 32.4594 8.00313 30.9969C6.54063 29.5344 5.38282 27.8146 4.52969 25.8375C3.67657 23.8604 3.25 21.7479 3.25 19.5C3.25 17.2521 3.67657 15.1396 4.52969 13.1625C5.38282 11.1854 6.54063 9.46563 8.00313 8.00313C9.46563 6.54063 11.1854 5.38282 13.1625 4.5297C15.1396 3.67657 17.2521 3.25001 19.5 3.25001ZM19.5 6.50001C15.8708 6.50001 12.7969 7.75938 10.2781 10.2781C7.75938 12.7969 6.5 15.8708 6.5 19.5C6.5 23.1292 7.75938 26.2031 10.2781 28.7219C12.7969 31.2406 15.8708 32.5 19.5 32.5C23.1292 32.5 26.2031 31.2406 28.7219 28.7219C31.2406 26.2031 32.5 23.1292 32.5 19.5C32.5 15.8708 31.2406 12.7969 28.7219 10.2781C26.2031 7.75938 23.1292 6.5 19.5 6.50001Z" fill="#1C1B1F"/>
</g>
</svg>
