<svg width="155" height="21" viewBox="0 0 155 21" fill="none" xmlns="http://www.w3.org/2000/svg">
<path d="M8.925 0.149999C10.575 0.149999 12.025 0.483332 13.275 1.15C14.5417 1.8 15.5167 2.75833 16.2 4.025C16.9 5.275 17.25 6.78333 17.25 8.55V18H12.3V14.125H5.475V18H0.6V8.55C0.6 6.78333 0.941667 5.275 1.625 4.025C2.325 2.75833 3.3 1.8 4.55 1.15C5.81667 0.483332 7.275 0.149999 8.925 0.149999ZM12.3 10.3V8.125C12.3 6.84167 11.9917 5.875 11.375 5.225C10.7583 4.575 9.93333 4.25 8.9 4.25C7.85 4.25 7.01667 4.575 6.4 5.225C5.78333 5.875 5.475 6.84167 5.475 8.125V10.3H12.3ZM26.7486 18.35C25.332 18.35 23.957 18.175 22.6236 17.825C21.2903 17.475 20.207 17.0083 19.3736 16.425L20.9986 12.775C21.782 13.2917 22.6903 13.7083 23.7236 14.025C24.757 14.3417 25.7736 14.5 26.7736 14.5C28.6736 14.5 29.6236 14.025 29.6236 13.075C29.6236 12.575 29.3486 12.2083 28.7986 11.975C28.2653 11.725 27.3986 11.4667 26.1986 11.2C24.882 10.9167 23.782 10.6167 22.8986 10.3C22.0153 9.96667 21.257 9.44167 20.6236 8.725C19.9903 8.00833 19.6736 7.04167 19.6736 5.825C19.6736 4.75833 19.9653 3.8 20.5486 2.95C21.132 2.08333 21.9986 1.4 23.1486 0.9C24.3153 0.399999 25.7403 0.149999 27.4236 0.149999C28.5736 0.149999 29.707 0.283332 30.8236 0.55C31.9403 0.799999 32.9236 1.175 33.7736 1.675L32.2486 5.35C30.582 4.45 28.9653 4 27.3986 4C26.4153 4 25.6986 4.15 25.2486 4.45C24.7986 4.73333 24.5736 5.10833 24.5736 5.575C24.5736 6.04167 24.8403 6.39167 25.3736 6.625C25.907 6.85833 26.7653 7.1 27.9486 7.35C29.282 7.63333 30.382 7.94167 31.2486 8.275C32.132 8.59167 32.8903 9.10833 33.5236 9.825C34.1736 10.525 34.4986 11.4833 34.4986 12.7C34.4986 13.75 34.207 14.7 33.6236 15.55C33.0403 16.4 32.1653 17.0833 30.9986 17.6C29.832 18.1 28.4153 18.35 26.7486 18.35ZM53.4352 0.499999V18H48.4852V11.175H41.7352V18H36.7852V0.499999H41.7352V7.075H48.4852V0.499999H53.4352ZM65.1018 0.149999C66.7518 0.149999 68.2018 0.483332 69.4518 1.15C70.7184 1.8 71.6934 2.75833 72.3768 4.025C73.0768 5.275 73.4268 6.78333 73.4268 8.55V18H68.4768V14.125H61.6518V18H56.7768V8.55C56.7768 6.78333 57.1184 5.275 57.8018 4.025C58.5018 2.75833 59.4768 1.8 60.7268 1.15C61.9934 0.483332 63.4518 0.149999 65.1018 0.149999ZM68.4768 10.3V8.125C68.4768 6.84167 68.1684 5.875 67.5518 5.225C66.9351 4.575 66.1101 4.25 65.0768 4.25C64.0268 4.25 63.1934 4.575 62.5768 5.225C61.9601 5.875 61.6518 6.84167 61.6518 8.125V10.3H68.4768ZM91.6057 16.675C90.7057 17.1917 89.614 17.6 88.3307 17.9C87.0473 18.2 85.714 18.35 84.3307 18.35C82.464 18.35 80.8723 18.125 79.5557 17.675C78.2557 17.225 77.2723 16.6 76.6057 15.8C75.9557 15 75.6307 14.075 75.6307 13.025C75.6307 12.1083 75.8807 11.3 76.3807 10.6C76.8807 9.9 77.5723 9.35833 78.4557 8.975C77.7723 8.625 77.2473 8.14167 76.8807 7.525C76.5307 6.89167 76.3557 6.2 76.3557 5.45C76.3557 4.48333 76.6557 3.6 77.2557 2.8C77.8723 2 78.8057 1.35833 80.0557 0.874998C81.3057 0.391665 82.8473 0.149999 84.6807 0.149999C85.8307 0.149999 86.964 0.258332 88.0807 0.474999C89.1973 0.691666 90.1807 0.983333 91.0307 1.35L89.6807 5.05C88.1307 4.36667 86.5307 4.025 84.8807 4.025C83.6973 4.025 82.814 4.18333 82.2307 4.5C81.6473 4.8 81.3557 5.225 81.3557 5.775C81.3557 6.775 82.0807 7.275 83.5307 7.275H88.4807V11.05H83.2057C82.3557 11.05 81.714 11.1917 81.2807 11.475C80.8473 11.7417 80.6307 12.1417 80.6307 12.675C80.6307 13.2417 80.9473 13.6833 81.5807 14C82.214 14.3167 83.1973 14.475 84.5307 14.475C85.4807 14.475 86.4557 14.35 87.4557 14.1C88.4723 13.8333 89.3557 13.475 90.1057 13.025L91.6057 16.675ZM111.322 0.499999L103.822 18H98.9473L91.4723 0.499999H96.8223L101.572 11.9L106.422 0.499999H111.322Z" fill="#E50404"/>
<path d="M113.511 18.225C112.711 18.225 112.036 17.9583 111.486 17.425C110.936 16.8917 110.661 16.2167 110.661 15.4C110.661 14.5667 110.928 13.8917 111.461 13.375C112.011 12.8583 112.695 12.6 113.511 12.6C114.345 12.6 115.028 12.8583 115.561 13.375C116.095 13.8917 116.361 14.5667 116.361 15.4C116.361 16.2167 116.086 16.8917 115.536 17.425C115.003 17.9583 114.328 18.225 113.511 18.225ZM132.266 8.875C133.266 9.225 134.05 9.775 134.616 10.525C135.183 11.2583 135.466 12.15 135.466 13.2C135.466 14.7333 134.85 15.9167 133.616 16.75C132.383 17.5833 130.6 18 128.266 18H118.816V0.499999H127.766C130 0.499999 131.7 0.916666 132.866 1.75C134.033 2.56667 134.616 3.675 134.616 5.075C134.616 5.90833 134.408 6.65833 133.991 7.325C133.591 7.975 133.016 8.49167 132.266 8.875ZM123.716 4.075V7.45H127.116C128.783 7.45 129.616 6.88333 129.616 5.75C129.616 4.63333 128.783 4.075 127.116 4.075H123.716ZM127.866 14.425C129.6 14.425 130.466 13.8333 130.466 12.65C130.466 11.4667 129.6 10.875 127.866 10.875H123.716V14.425H127.866ZM154.28 0.499999V12.375C154.28 14.1417 153.93 15.6583 153.23 16.925C152.53 18.175 151.53 19.1167 150.23 19.75C148.947 20.4 147.422 20.725 145.655 20.725C144.105 20.725 142.697 20.525 141.43 20.125C140.18 19.7417 139.105 19.1917 138.205 18.475L140.055 14.9C140.855 15.4833 141.714 15.925 142.63 16.225C143.547 16.525 144.489 16.675 145.455 16.675C146.789 16.675 147.764 16.35 148.38 15.7C149.014 15.05 149.33 14.0333 149.33 12.65V11.85C148.214 13.2 146.639 13.875 144.605 13.875C142.405 13.875 140.714 13.25 139.53 12C138.347 10.7333 137.755 8.925 137.755 6.575V0.499999H142.705V6.25C142.705 7.43333 142.972 8.325 143.505 8.925C144.055 9.50833 144.847 9.8 145.88 9.8C146.93 9.8 147.764 9.49167 148.38 8.875C149.014 8.25833 149.33 7.3 149.33 6V0.499999H154.28Z" fill="#D6D6D6"/>
</svg>
