<svg width="149" height="21" viewBox="0 0 149 21" fill="none" xmlns="http://www.w3.org/2000/svg">
<path d="M8.528 0.863999C10.112 0.863999 11.504 1.184 12.704 1.824C13.92 2.448 14.856 3.368 15.512 4.584C16.184 5.784 16.52 7.232 16.52 8.928V18H11.768V14.28H5.216V18H0.536V8.928C0.536 7.232 0.864 5.784 1.52 4.584C2.192 3.368 3.128 2.448 4.328 1.824C5.544 1.184 6.944 0.863999 8.528 0.863999ZM11.768 10.608V8.52C11.768 7.288 11.472 6.36 10.88 5.736C10.288 5.112 9.496 4.8 8.504 4.8C7.496 4.8 6.696 5.112 6.104 5.736C5.512 6.36 5.216 7.288 5.216 8.52V10.608H11.768ZM25.6387 18.336C24.2787 18.336 22.9587 18.168 21.6787 17.832C20.3987 17.496 19.3587 17.048 18.5587 16.488L20.1187 12.984C20.8707 13.48 21.7427 13.88 22.7347 14.184C23.7267 14.488 24.7027 14.64 25.6627 14.64C27.4867 14.64 28.3987 14.184 28.3987 13.272C28.3987 12.792 28.1347 12.44 27.6067 12.216C27.0947 11.976 26.2627 11.728 25.1107 11.472C23.8467 11.2 22.7907 10.912 21.9427 10.608C21.0947 10.288 20.3667 9.784 19.7587 9.096C19.1507 8.408 18.8467 7.48 18.8467 6.312C18.8467 5.288 19.1267 4.368 19.6867 3.552C20.2467 2.72 21.0787 2.064 22.1827 1.584C23.3027 1.104 24.6707 0.863999 26.2867 0.863999C27.3907 0.863999 28.4787 0.991999 29.5507 1.248C30.6227 1.488 31.5667 1.848 32.3827 2.328L30.9187 5.856C29.3187 4.992 27.7667 4.56 26.2627 4.56C25.3187 4.56 24.6307 4.704 24.1987 4.992C23.7667 5.264 23.5507 5.624 23.5507 6.072C23.5507 6.52 23.8067 6.856 24.3187 7.08C24.8307 7.304 25.6547 7.536 26.7907 7.776C28.0707 8.048 29.1267 8.344 29.9587 8.664C30.8067 8.968 31.5347 9.464 32.1427 10.152C32.7667 10.824 33.0787 11.744 33.0787 12.912C33.0787 13.92 32.7987 14.832 32.2387 15.648C31.6787 16.464 30.8387 17.12 29.7187 17.616C28.5987 18.096 27.2387 18.336 25.6387 18.336ZM51.2578 1.2V18H46.5058V11.448H40.0258V18H35.2738V1.2H40.0258V7.512H46.5058V1.2H51.2578ZM62.4577 0.863999C64.0417 0.863999 65.4337 1.184 66.6337 1.824C67.8497 2.448 68.7857 3.368 69.4417 4.584C70.1137 5.784 70.4497 7.232 70.4497 8.928V18H65.6977V14.28H59.1457V18H54.4657V8.928C54.4657 7.232 54.7937 5.784 55.4497 4.584C56.1217 3.368 57.0577 2.448 58.2577 1.824C59.4737 1.184 60.8737 0.863999 62.4577 0.863999ZM65.6977 10.608V8.52C65.6977 7.288 65.4017 6.36 64.8097 5.736C64.2177 5.112 63.4257 4.8 62.4337 4.8C61.4257 4.8 60.6257 5.112 60.0337 5.736C59.4417 6.36 59.1457 7.288 59.1457 8.52V10.608H65.6977ZM87.9014 16.728C87.0374 17.224 85.9894 17.616 84.7574 17.904C83.5254 18.192 82.2454 18.336 80.9174 18.336C79.1254 18.336 77.5974 18.12 76.3334 17.688C75.0854 17.256 74.1414 16.656 73.5014 15.888C72.8774 15.12 72.5654 14.232 72.5654 13.224C72.5654 12.344 72.8054 11.568 73.2854 10.896C73.7654 10.224 74.4294 9.704 75.2774 9.336C74.6214 9 74.1174 8.536 73.7654 7.944C73.4294 7.336 73.2614 6.672 73.2614 5.952C73.2614 5.024 73.5494 4.176 74.1254 3.408C74.7174 2.64 75.6134 2.024 76.8134 1.56C78.0134 1.096 79.4934 0.863999 81.2534 0.863999C82.3574 0.863999 83.4454 0.967999 84.5174 1.176C85.5894 1.384 86.5334 1.664 87.3494 2.016L86.0534 5.568C84.5654 4.912 83.0294 4.584 81.4454 4.584C80.3094 4.584 79.4614 4.736 78.9014 5.04C78.3414 5.328 78.0614 5.736 78.0614 6.264C78.0614 7.224 78.7574 7.704 80.1494 7.704H84.9014V11.328H79.8374C79.0214 11.328 78.4054 11.464 77.9894 11.736C77.5734 11.992 77.3654 12.376 77.3654 12.888C77.3654 13.432 77.6694 13.856 78.2774 14.16C78.8854 14.464 79.8294 14.616 81.1094 14.616C82.0214 14.616 82.9574 14.496 83.9174 14.256C84.8934 14 85.7414 13.656 86.4614 13.224L87.9014 16.728ZM106.829 1.2L99.6294 18H94.9494L87.7734 1.2H92.9094L97.4694 12.144L102.125 1.2H106.829Z" fill="#E50404"/>
<path d="M108.931 18.216C108.163 18.216 107.515 17.96 106.987 17.448C106.459 16.936 106.195 16.288 106.195 15.504C106.195 14.704 106.451 14.056 106.963 13.56C107.491 13.064 108.147 12.816 108.931 12.816C109.731 12.816 110.387 13.064 110.899 13.56C111.411 14.056 111.667 14.704 111.667 15.504C111.667 16.288 111.403 16.936 110.875 17.448C110.363 17.96 109.715 18.216 108.931 18.216ZM126.936 9.24C127.896 9.576 128.648 10.104 129.192 10.824C129.736 11.528 130.008 12.384 130.008 13.392C130.008 14.864 129.416 16 128.232 16.8C127.048 17.6 125.336 18 123.096 18H114.024V1.2H122.616C124.76 1.2 126.392 1.6 127.512 2.4C128.632 3.184 129.192 4.248 129.192 5.592C129.192 6.392 128.992 7.112 128.592 7.752C128.208 8.376 127.656 8.872 126.936 9.24ZM118.728 4.632V7.872H121.992C123.592 7.872 124.392 7.328 124.392 6.24C124.392 5.168 123.592 4.632 121.992 4.632H118.728ZM122.712 14.568C124.376 14.568 125.208 14 125.208 12.864C125.208 11.728 124.376 11.16 122.712 11.16H118.728V14.568H122.712ZM148.069 1.2V12.6C148.069 14.296 147.733 15.752 147.061 16.968C146.389 18.168 145.429 19.072 144.181 19.68C142.949 20.304 141.485 20.616 139.789 20.616C138.301 20.616 136.949 20.424 135.733 20.04C134.533 19.672 133.501 19.144 132.637 18.456L134.413 15.024C135.181 15.584 136.005 16.008 136.885 16.296C137.765 16.584 138.669 16.728 139.597 16.728C140.877 16.728 141.813 16.416 142.405 15.792C143.013 15.168 143.317 14.192 143.317 12.864V12.096C142.245 13.392 140.733 14.04 138.781 14.04C136.669 14.04 135.045 13.44 133.909 12.24C132.773 11.024 132.205 9.288 132.205 7.032V1.2H136.957V6.72C136.957 7.856 137.213 8.712 137.725 9.288C138.253 9.848 139.013 10.128 140.005 10.128C141.013 10.128 141.813 9.832 142.405 9.24C143.013 8.648 143.317 7.728 143.317 6.48V1.2H148.069Z" fill="black"/>
</svg>
